<svg width="311" height="131" viewBox="0 0 311 131" fill="none" xmlns="http://www.w3.org/2000/svg">
<path d="M19.125 96.5625C14.9583 97.6042 12.0417 98.125 10.375 98.125C8.75 98.125 7.41667 97.875 6.375 97.375C5.33333 96.8333 4.39583 96.125 3.5625 95.25C1.72917 93.3333 0.8125 91.4167 0.8125 89.5C0.8125 87.5417 1.20833 85.875 2 84.5C2.79167 83.125 3.83333 81.9167 5.125 80.875C8 78.625 10.7708 77.5 13.4375 77.5C16.1042 77.5 18.3542 77.625 20.1875 77.875C25.4792 74.25 30.875 67.8333 36.375 58.625C38.75 54.5833 41.0833 50.3542 43.375 45.9375C45.6667 41.4792 48 37.1042 50.375 32.8125C52.7917 28.4792 55.2917 24.375 57.875 20.5C60.4583 16.5833 63.25 13.125 66.25 10.125C72.7917 3.66667 79.9583 0.4375 87.75 0.4375C93.9167 0.4375 98.625 2.20833 101.875 5.75C104.75 8.91667 106.188 13.0625 106.188 18.1875C106.188 26.3125 103.042 33.9167 96.75 41C92.875 45.2917 88.7917 48.3125 84.5 50.0625C82.2917 50.9375 80.25 51.375 78.375 51.375C76.5 51.375 74.9583 50.9167 73.75 50C71.0417 47.875 69.6875 44.9375 69.6875 41.1875C69.6875 40.0625 69.875 39.0625 70.25 38.1875C71.2083 38.3125 72.2292 38.375 73.3125 38.375C74.4375 38.375 75.8542 38.2083 77.5625 37.875C79.2708 37.5417 81.125 36.8958 83.125 35.9375C85.1667 34.9792 87.0625 33.7917 88.8125 32.375C90.5625 30.9583 92.0833 29.3958 93.375 27.6875C96.125 24.0625 97.5 20.4375 97.5 16.8125C97.5 12.5208 95.8333 9.54167 92.5 7.875C91.375 7.29167 89.7083 7 87.5 7C85.2917 7 83 7.6875 80.625 9.0625C78.25 10.4375 76.0625 12.3125 74.0625 14.6875C72.1042 17.0208 70.2917 19.7708 68.625 22.9375C67 26.1042 65.4583 29.4792 64 33.0625C62.5833 36.6042 61.2083 40.2708 59.875 44.0625C58.5833 47.8542 57.2917 51.5625 56 55.1875C54.75 58.8125 53.4583 62.25 52.125 65.5C50.8333 68.75 49.4583 71.625 48 74.125C44.75 79.625 41.2292 82.6042 37.4375 83.0625C48.9792 86.8958 59.6667 89.5 69.5 90.875C71.5833 91.1667 73.3958 91.3125 74.9375 91.3125C76.4792 91.3125 77.9792 91.1667 79.4375 90.875C80.8958 90.5833 82.25 90.125 83.5 89.5C86.3333 88.125 88.2917 86.2708 89.375 83.9375C92.2917 84.1458 93.75 85.2917 93.75 87.375C93.75 89.4167 93.4375 91.5 92.8125 93.625C92.1875 95.7083 91.3125 97.7083 90.1875 99.625C89.1042 101.542 87.7917 103.333 86.25 105C84.75 106.667 83.0833 108.104 81.25 109.312C77.4167 111.896 73.5208 113.188 69.5625 113.188C65.6458 113.188 62.125 112.812 59 112.062C55.9167 111.312 53 110.354 50.25 109.188C47.5417 108.062 44.9375 106.812 42.4375 105.438C39.9375 104.062 37.4583 102.75 35 101.5C29.125 98.625 23.8333 96.9792 19.125 96.5625ZM121.188 99.3125L119.938 99.375C113.354 99.375 108.333 97.75 104.875 94.5C101.625 91.4583 100 87.3333 100 82.125C100 74.9583 102.854 68.1042 108.562 61.5625C114.104 55.2292 120.833 50.7917 128.75 48.25C128.5 46.375 129.188 44.8333 130.812 43.625C131.979 42.75 133.896 42.3125 136.562 42.3125C139.271 42.3125 141.875 42.5625 144.375 43.0625C146.875 43.5625 149.396 44.6667 151.938 46.375C157.438 50 160.188 54.875 160.188 61C160.188 67.625 158.542 73.9167 155.25 79.875C162.417 78.3333 168.688 73.5417 174.062 65.5C175.938 65.375 176.875 66.1458 176.875 67.8125C176.875 68.4792 176.667 69.2917 176.25 70.25C170.583 83.7083 159.25 92.625 142.25 97C136.167 98.5833 129.25 99.375 121.5 99.375L121.188 99.3125ZM120.125 71.9375C120.125 76.7708 122.146 79.1875 126.188 79.1875C129.604 79.1875 133.042 77.125 136.5 73C140.125 68.7083 141.938 64.3542 141.938 59.9375C141.938 55.4375 139.771 52.4583 135.438 51C127.979 53.0833 123.208 57.75 121.125 65C120.458 67.2083 120.125 69.5208 120.125 71.9375ZM223.312 44.875C225.104 42.8333 227.167 41.8125 229.5 41.8125C230.875 41.8125 232.042 42.2083 233 43C228.875 49.5833 224.625 59.375 220.25 72.375C219.042 75.9583 217.833 79.5417 216.625 83.125C223.875 82.125 230.875 78.3333 237.625 71.75C239.625 69.75 241.333 67.6667 242.75 65.5C244.625 65.375 245.562 66.1458 245.562 67.8125C245.562 68.4792 245.062 70 244.062 72.375C243.062 74.75 241.354 77.4792 238.938 80.5625C236.562 83.6458 233.896 86.375 230.938 88.75C225.104 93.375 218.562 96.4792 211.312 98.0625C207.396 108.146 203.125 115.75 198.5 120.875C192.875 127.125 186.146 130.25 178.312 130.25C172.729 130.25 167.833 128.646 163.625 125.438C159.125 121.979 156.875 117.75 156.875 112.75C156.875 110.667 157.875 108.583 159.875 106.5C161.917 104.375 164.062 103.062 166.312 102.562C168.104 104.854 171.833 106.729 177.5 108.188C178.958 108.562 180.354 108.75 181.688 108.75C183.062 108.75 184.542 108.25 186.125 107.25C187.75 106.292 189.354 104.958 190.938 103.25C193.854 100.042 196.938 95.5 200.188 89.625C194.188 95.875 187.562 99 180.312 99C175.896 99 172.25 97.4375 169.375 94.3125C166.458 91.1458 165 87.0833 165 82.125C165 75.75 167.5 69.5625 172.5 63.5625C177.333 57.7292 183.667 52.9792 191.5 49.3125C199.625 45.5208 208.021 43.625 216.688 43.625C219.646 43.625 221.854 44.0417 223.312 44.875ZM185.125 71.9375C185.125 76.7708 187.146 79.1875 191.188 79.1875C196.938 79.1875 204.5 72.5833 213.875 59.375C215.292 57.4167 216.625 55.5208 217.875 53.6875C218.375 52.7708 219.167 51.3333 220.25 49.375C209.875 49.625 201.375 52.0417 194.75 56.625C188.333 61 185.125 66.1042 185.125 71.9375ZM254.938 99.3125L253.688 99.375C247.104 99.375 242.083 97.75 238.625 94.5C235.375 91.4583 233.75 87.3333 233.75 82.125C233.75 74.9583 236.604 68.1042 242.312 61.5625C247.854 55.2292 254.583 50.7917 262.5 48.25C262.25 46.375 262.938 44.8333 264.562 43.625C265.729 42.75 267.646 42.3125 270.312 42.3125C273.021 42.3125 275.625 42.5625 278.125 43.0625C280.625 43.5625 283.146 44.6667 285.688 46.375C291.188 50 293.938 54.875 293.938 61C293.938 67.625 292.292 73.9167 289 79.875C296.167 78.3333 302.438 73.5417 307.812 65.5C309.688 65.375 310.625 66.1458 310.625 67.8125C310.625 68.4792 310.417 69.2917 310 70.25C304.333 83.7083 293 92.625 276 97C269.917 98.5833 263 99.375 255.25 99.375L254.938 99.3125ZM253.875 71.9375C253.875 76.7708 255.896 79.1875 259.938 79.1875C263.354 79.1875 266.792 77.125 270.25 73C273.875 68.7083 275.688 64.3542 275.688 59.9375C275.688 55.4375 273.521 52.4583 269.188 51C261.729 53.0833 256.958 57.75 254.875 65C254.208 67.2083 253.875 69.5208 253.875 71.9375Z" fill="black"/>
</svg>
